<svg xmlns="http://www.w3.org/2000/svg" viewBox="0 0 200 140" width="200" height="140">
  <rect x="38" y="8" width="26" height="26" rx="3" fill="#1a1a24" stroke="#3f3f46" stroke-width="1"></rect>
  <rect x="44" y="16" width="14" height="10" rx="1.5" fill="rgba(251,191,36,.35)"></rect>
  <rect x="70" y="8" width="26" height="26" rx="3" fill="#1a1a24" stroke="#3f3f46" stroke-width="1"></rect>
  <circle cx="83" cy="21" r="6" fill="#a855f7"></circle>
  <rect x="102" y="8" width="26" height="26" rx="3" fill="#1a1a24" stroke="#3f3f46" stroke-width="1"></rect>
  <path d="M115 15 L121 26 L109 26 Z" fill="#4ade80"></path>
  <rect x="134" y="8" width="26" height="26" rx="3" fill="#1a1a24" stroke="#3f3f46" stroke-width="1"></rect>
  <rect x="140" y="16" width="14" height="10" rx="1.5" fill="#a855f7"></rect>
  <rect x="38" y="40" width="26" height="26" rx="3" fill="#1a1a24" stroke="#3f3f46" stroke-width="1"></rect>
  <path d="M51 47 L57 58 L45 58 Z" fill="rgba(251,191,36,.35)"></path>
  <rect x="70" y="40" width="26" height="26" rx="3" fill="#1a1a24" stroke="#fbbf24" stroke-width="1.5"></rect>
  <rect x="76" y="48" width="14" height="10" rx="1.5" fill="#fbbf24"></rect>
  <rect x="102" y="40" width="26" height="26" rx="3" fill="#1a1a24" stroke="#3f3f46" stroke-width="1"></rect>
  <circle cx="115" cy="53" r="6" fill="#a855f7"></circle>
  <rect x="134" y="40" width="26" height="26" rx="3" fill="#1a1a24" stroke="#3f3f46" stroke-width="1"></rect>
  <path d="M147 47 L153 58 L141 58 Z" fill="rgba(251,191,36,.35)"></path>
  <rect x="38" y="72" width="26" height="26" rx="3" fill="#1a1a24" stroke="#3f3f46" stroke-width="1"></rect>
  <circle cx="51" cy="85" r="6" fill="#4ade80"></circle>
  <rect x="70" y="72" width="26" height="26" rx="3" fill="#1a1a24" stroke="#3f3f46" stroke-width="1"></rect>
  <rect x="76" y="80" width="14" height="10" rx="1.5" fill="rgba(251,191,36,.35)"></rect>
  <rect x="102" y="72" width="26" height="26" rx="3" fill="#1a1a24" stroke="#3f3f46" stroke-width="1"></rect>
  <rect x="108" y="80" width="14" height="10" rx="1.5" fill="#fbbf24"></rect>
  <rect x="134" y="72" width="26" height="26" rx="3" fill="#1a1a24" stroke="#3f3f46" stroke-width="1"></rect>
  <circle cx="147" cy="85" r="6" fill="#a855f7"></circle>
  <rect x="38" y="104" width="26" height="26" rx="3" fill="#1a1a24" stroke="#3f3f46" stroke-width="1"></rect>
  <path d="M51 111 L57 122 L45 122 Z" fill="#a855f7"></path>
  <rect x="70" y="104" width="26" height="26" rx="3" fill="#1a1a24" stroke="#3f3f46" stroke-width="1"></rect>
  <circle cx="83" cy="117" r="6" fill="#4ade80"></circle>
  <rect x="102" y="104" width="26" height="26" rx="3" fill="#1a1a24" stroke="#3f3f46" stroke-width="1"></rect>
  <circle cx="115" cy="117" r="6" fill="rgba(251,191,36,.35)"></circle>
  <rect x="134" y="104" width="26" height="26" rx="3" fill="#1a1a24" stroke="#3f3f46" stroke-width="1"></rect>
  <rect x="140" y="112" width="14" height="10" rx="1.5" fill="rgba(251,191,36,.35)"></rect>
</svg>